<svg width="24" height="18" viewBox="0 0 24 18" fill="none" xmlns="http://www.w3.org/2000/svg">
<mask id="mask0" mask-type="alpha" maskUnits="userSpaceOnUse" x="0" y="0" width="24" height="18">
<path fill-rule="evenodd" clip-rule="evenodd" d="M0 0H24V18H0V0Z" fill="white"/>
</mask>
<g mask="url(#mask0)">
<path fill-rule="evenodd" clip-rule="evenodd" d="M22.6643 15.1077C22.6643 15.9739 21.9492 16.6786 21.0702 16.6786H2.93486C2.05591 16.6786 1.34082 15.9739 1.34082 15.1077V2.89723C1.34082 2.031 2.05591 1.32627 2.93486 1.32627H21.0652C21.9442 1.32627 22.6592 2.031 22.6592 2.89723V15.1077H22.6643ZM21.0701 0H2.93483C1.31595 0 0 1.2969 0 2.89233V15.1077C0 16.7031 1.31595 18 2.93483 18H21.0652C22.684 18 24 16.7031 24 15.1077V2.89723C24.005 1.30179 22.689 0 21.0701 0Z" fill="#AFB09A"/>
</g>
<path fill-rule="evenodd" clip-rule="evenodd" d="M15.153 8.84074L21.0285 3.68689C21.3019 3.44378 21.3267 3.0305 21.0782 2.75822C20.8297 2.4908 20.4072 2.46649 20.1288 2.7096L12.0264 9.82289L10.4457 8.44204C10.4407 8.43718 10.4358 8.43232 10.4358 8.42746C10.401 8.39342 10.3662 8.36425 10.3264 8.33508L3.89423 2.70474C3.61587 2.46163 3.19335 2.48594 2.94481 2.75822C2.69627 3.0305 2.72113 3.44378 2.99949 3.68689L8.94454 8.8845L3.02434 14.3058C2.75592 14.5537 2.74101 14.967 2.99452 15.2344C3.12873 15.3706 3.30768 15.4435 3.48663 15.4435C3.65066 15.4435 3.8147 15.3852 3.94394 15.2685L9.95361 9.76945L11.584 11.194C11.7133 11.3058 11.8723 11.3593 12.0314 11.3593C12.1905 11.3593 12.3545 11.301 12.4788 11.1891L14.1539 9.72083L20.1288 15.2733C20.258 15.3949 20.4271 15.4532 20.5911 15.4532C20.77 15.4532 20.944 15.3852 21.0782 15.249C21.3317 14.9865 21.3218 14.5683 21.0534 14.3203L15.153 8.84074Z" fill="#AFB09A"/>
</svg>
