<?xml version="1.0" encoding="UTF-8"?>
<svg width="37px" height="39px" viewBox="0 0 37 39" version="1.1" xmlns="http://www.w3.org/2000/svg" xmlns:xlink="http://www.w3.org/1999/xlink">
    <!-- Generator: Sketch 50.2 (55047) - http://www.bohemiancoding.com/sketch -->
    <title>Group 11</title>
    <desc>Created with Sketch.</desc>
    <defs>
        <polygon id="path-1" points="0 0.00142987822 36.2028939 0.00142987822 36.2028939 38.9244599 0 38.9244599"></polygon>
    </defs>
    <g id="Page-1" stroke="none" stroke-width="1" fill="none" fill-rule="evenodd">
        <g id="Медиа-подкасты" transform="translate(-524.000000, -171.000000)">
            <g id="Group-4" transform="translate(500.000000, 104.000000)">
                <g id="Group-2">
                    <g id="скиринг-copy">
                        <g id="Group-7">
                            <g id="Group-8" transform="translate(24.000000, 67.000000)">
                                <g id="Group-11">
                                    <g id="Group-10">
                                        <g id="Page-1">
                                            <path d="M10.2266405,14.171666 L10.2266405,18.8902642 C10.2266405,19.3192276 10.3920945,19.7243598 10.6914874,20.026223 L14.0005673,23.3626055 C13.3229938,23.7041875 12.5823902,23.8789504 11.8102715,23.8789504 C9.07634126,23.8789504 6.86240925,21.6388079 6.86240925,18.8902642 C6.87028801,16.7375031 8.25695005,14.8468863 10.2266405,14.171666 M11.8181503,25.5471417 C13.2678424,25.5471417 14.6545045,25.0705156 15.8126824,24.1808136 C16.0017727,24.0378258 16.3799533,23.4897058 15.8914701,22.9415858 L11.8733016,18.8743766 L11.8733016,13.1310325 C11.8102715,12.3525432 11.1799706,12.2810493 10.9436078,12.3128244 C7.68180045,12.7497316 5.22362683,15.577713 5.22362683,18.8982079 C5.22362683,22.5602849 8.1860412,25.5471417 11.8181503,25.5471417" id="Fill-1" fill="#7198BA"></path>
                                            <path d="M14.567846,13.1628314 C16.5375364,13.8380516 17.9320772,15.7207246 17.9320772,17.8814295 C17.9320772,18.6599187 17.7587444,19.4066329 17.4199577,20.089797 L14.5757247,17.2220968 L14.5757247,13.1628314 L14.567846,13.1628314 Z M16.978747,21.9963013 C17.5381391,22.4887354 18.0660161,22.0995702 18.2078339,21.9168636 C19.0981339,20.7491297 19.5629021,19.3510265 19.5629021,17.8893733 C19.5629021,14.576822 17.1048072,11.7408969 13.8429999,11.3039897 C13.4884556,11.2563271 12.9448211,11.462865 12.913306,12.1221978 L12.913306,17.5636788 C12.913306,17.7861043 12.9999724,17.9926422 13.1575477,18.1515176 L16.978747,21.9963013 Z" id="Fill-3" fill="#7198BA"></path>
                                            <g id="Group-7" transform="translate(0.000000, 0.078008)">
                                                <mask id="mask-2" fill="white">
                                                    <use xlink:href="#path-1"></use>
                                                </mask>
                                                <g id="Clip-6"></g>
                                                <path d="M32.3423007,6.11812322 L3.85269867,6.11812322 C2.63149062,6.11812322 1.63876666,5.11720846 1.63876666,3.88592444 C1.63876666,2.65464041 2.63149062,1.65372566 3.85269867,1.65372566 L32.3502582,1.65372566 C33.5714663,1.65372566 34.5641115,2.65464041 34.5641115,3.88592444 C34.5563115,5.11720846 33.5635087,6.11812322 32.3423007,6.11812322 Z M3.72671727,28.9087933 L32.4684397,28.9087933 L32.4684397,7.77837071 L3.72671727,7.77837071 L3.72671727,28.9087933 Z M32.3423007,0.00142193445 L3.85269867,0.00142193445 C1.72543304,0.00142193445 -1.57575232e-05,1.74905087 -1.57575232e-05,3.88592444 C-1.57575232e-05,5.38729657 0.850890497,6.69801827 2.09573483,7.34146347 L2.09573483,29.7349452 C2.09573483,30.1956837 2.46603663,30.561097 2.91512604,30.561097 L17.2859872,30.561097 L17.2859872,33.5002912 L13.3072126,37.511894 C12.9841834,37.8375884 12.9841834,38.3618771 13.3072126,38.6796278 C13.6302418,39.0053223 14.1502401,39.0053223 14.4653906,38.6796278 L18.1053784,35.0096071 L21.7453663,38.6796278 C22.2732433,39.1403664 22.745969,38.8385032 22.9035443,38.6796278 C23.2265735,38.3539334 23.2265735,37.8296447 22.9035443,37.511894 L18.9247696,33.5002912 L18.9247696,30.561097 L33.2957096,30.561097 C33.752599,30.561097 34.115022,30.18774 34.115022,29.7349452 L34.115022,7.34146347 C35.3519876,6.69801827 36.2028939,5.38729657 36.2028939,3.88592444 C36.2028939,1.74905087 34.4695663,0.00142193445 32.3423007,0.00142193445 Z" id="Fill-5" fill="#7198BA" mask="url(#mask-2)"></path>
                                            </g>
                                            <path d="M30.1520207,25.2214551 C30.6089889,25.2214551 30.9714119,24.848098 30.9714119,24.3953033 L30.9714119,12.4478764 C30.9714119,11.9871378 30.6011101,11.6217245 30.1520207,11.6217245 C29.6950525,11.6217245 29.3326295,11.9950816 29.3326295,12.4478764 L29.3326295,24.3953033 C29.3247507,24.8560418 29.6950525,25.2214551 30.1520207,25.2214551" id="Fill-8" fill="#7198BA"></path>
                                            <path d="M26.5750314,25.2214551 C27.0320784,25.2214551 27.3944226,24.848098 27.3944226,24.3953033 L27.3944226,15.3076328 C27.3944226,14.8468943 27.0241208,14.4814809 26.5750314,14.4814809 C26.1180632,14.4814809 25.755719,14.854838 25.755719,15.3076328 L25.755719,24.3953033 C25.755719,24.8560418 26.1260208,25.2214551 26.5750314,25.2214551" id="Fill-10" fill="#7198BA"></path>
                                            <path d="M23.0059682,25.2214551 C23.4629363,25.2214551 23.8253594,24.848098 23.8253594,24.3953033 L23.8253594,17.4842252 C23.8253594,17.0234867 23.4550576,16.6580733 23.0059682,16.6580733 C22.549,16.6580733 22.1866557,17.0314304 22.1866557,17.4842252 L22.1866557,24.3953033 C22.1866557,24.8560418 22.5568787,25.2214551 23.0059682,25.2214551" id="Fill-12" fill="#7198BA"></path>
                                        </g>
                                    </g>
                                </g>
                            </g>
                        </g>
                    </g>
                </g>
            </g>
        </g>
    </g>
</svg>