<?xml version="1.0" encoding="UTF-8"?>
<svg width="415px" height="361px" viewBox="0 0 415 361" version="1.1" xmlns="http://www.w3.org/2000/svg" xmlns:xlink="http://www.w3.org/1999/xlink">
    <!-- Generator: Sketch 51.3 (57544) - http://www.bohemiancoding.com/sketch -->
    <title>Fill 1</title>
    <desc>Created with Sketch.</desc>
    <defs></defs>
    <g id="Page-1" stroke="none" stroke-width="1" fill="none" fill-rule="evenodd">
        <g id="Artboard" transform="translate(-68.000000, -95.000000)" fill="#A3A3A3">
            <g id="Page-1" transform="translate(67.767578, 95.547545)">
                <path d="M198.96136,17.2855599 L198.96136,47.4916443 C188.693267,46.8255424 178.039341,44.3741146 168.028058,39.5274364 C145.90224,28.8105423 94.8982202,27.649957 100.250494,80.5183214 C105.608941,133.386686 172.892022,124.41067 196.208674,121.040034 C197.10998,120.909776 198.029188,120.801126 198.96136,120.708526 L198.96136,138.245711 C197.206901,138.10249 195.393178,138.008655 193.510931,137.974084 C148.062904,137.127721 149.05681,173.537998 158.230372,186.878556 C163.996876,195.265019 178.658525,201.947028 198.96136,201.078441 L198.96136,218.704521 C180.366685,223.428968 173.585286,234.24587 175.960165,247.408018 C177.457196,255.703734 187.128946,261.489375 198.96136,263.04814 L198.96136,310.040732 L29.9393967,17.2855599 L198.96136,17.2855599 Z M292.79036,33.5269634 C297.685808,33.4158436 298.136461,39.6015163 298.136461,39.6015163 C298.136461,39.6015163 297.401835,40.391702 295.044242,40.2250222 C292.679858,40.0521691 287.950473,38.3668511 287.44426,37.6383986 C286.938047,36.9037728 287.89553,33.644874 292.79036,33.5269634 Z M216.246673,262.314131 C223.995432,260.621405 231.502814,257.010627 237.353892,251.074974 C236.063667,252.270747 229.23103,258.064413 216.246673,259.639229 L216.246673,224.925382 C231.472565,221.017666 247.008357,213.852287 248.422666,186.53285 C248.422666,186.53285 293.864519,163.808837 270.44292,127.805999 C258.278998,109.104525 237.063129,103.701013 216.246673,102.728097 L216.246673,70.9138607 C235.11174,68.6433114 246.303363,61.5273184 252.688434,58.8561202 C260.775491,55.4793109 267.393297,60.9180111 268.127923,62.5354226 C268.862549,64.152834 280.054789,78.561377 283.943984,79.1540163 C287.833179,79.7404823 292.685414,78.561377 290.04323,74.0054624 C289.314778,72.7522772 288.388779,71.3694522 287.413393,69.8816806 C288.277659,69.7396941 295.303521,68.6784993 297.790754,70.3632 C300.439111,72.1596379 301.976269,78.0057777 304.6308,78.5119904 C307.28533,79.0188205 309.810838,77.1229921 309.810838,77.1229921 C309.810838,77.1229921 305.643842,78.7650968 304.254844,77.1229921 C302.865846,75.4808873 300.087849,68.9124684 296.673382,68.2827891 C293.302746,67.6531099 289.555537,69.0482816 285.067529,66.1838583 C283.277265,63.1651018 281.70924,59.8870657 281.301801,56.5534696 C280.517788,50.1332105 283.277265,49.4479713 287.394873,47.6824001 C287.394873,47.6824001 276.659459,45.6266825 274.745728,52.0963282 C272.83817,58.5659739 277.097765,64.7393 277.097765,64.7393 C277.097765,64.7393 270.337973,59.1524399 270.189814,50.7690631 C270.042271,42.3918596 278.57319,42.9783256 283.567411,43.1264854 C288.567805,43.2684719 298.716753,45.0340432 297.099342,50.9172229 C295.531317,56.6152029 293.413866,60.9365311 293.284226,61.2019841 C293.574373,60.8315846 300.500845,51.8740885 301.36511,48.4170259 C301.36511,48.4170259 304.748093,46.6514546 304.451773,49.4479713 C304.155454,52.2383147 300.920631,59.4487595 300.186005,60.6216915 C300.186005,60.6216915 305.335176,57.2387088 306.95197,49.1516517 C306.95197,49.1516517 314.008082,44.2994174 311.952364,40.4781286 C311.952364,40.4781286 311.217739,38.8607171 306.95197,38.1260913 C302.686202,37.3914655 302.834362,36.6568397 300.920631,34.2986292 C299.013073,31.9472093 295.049798,29.4834349 283.943984,31.378646 C283.943984,31.378646 279.005323,27.0573177 272.831997,27.6746503 C266.658671,28.2919829 249.990691,36.9346394 232.705378,43.1079655 C227.781533,44.8667461 222.208254,46.1995672 216.246673,46.9625903 L216.246673,17.2855599 L385.268637,17.2855599 L216.246673,310.040732 L216.246673,262.314131 Z M198.96136,258.878675 C180.611766,254.234482 180.645102,236.48617 195.986434,230.227652 C196.930953,229.841819 197.926711,229.491174 198.96136,229.161518 L198.96136,258.878675 Z M235.489548,192.471589 C235.489548,192.471589 234.657383,209.353784 216.246673,215.292524 L216.246673,198.684425 C222.347154,197.286166 228.780994,195.252056 235.489548,192.471589 Z M198.96136,187.337852 C183.60089,188.194709 169.990558,182.190532 169.064559,171.760081 C168.029293,160.096816 176.4102,150.621377 198.96136,152.317807 L198.96136,187.337852 Z M234.557376,175.766569 C234.557376,175.766569 227.980314,180.313224 216.246673,183.927706 L216.246673,157.262642 C228.723582,164.150839 234.557376,175.766569 234.557376,175.766569 Z M216.246673,120.970892 C238.004561,123.544552 259.576014,134.216998 256.120804,150.918932 C253.558873,163.321144 245.27427,168.000525 245.27427,168.000525 C245.27427,168.000525 239.284291,149.907124 216.246673,141.804016 L216.246673,120.970892 Z M198.96136,102.761433 C186.189983,103.289252 174.684755,104.617752 166.971802,104.3844 C143.9027,103.680641 128.172448,94.2477985 126.425396,82.7098521 C124.672172,71.1719057 128.870033,55.097182 150.890288,58.9363735 C172.76732,62.7564276 173.595781,70.3261601 198.96136,71.4997093 L198.96136,102.761433 Z M0,0.000246933042 L207.604017,359.581057 L415.208033,0.000246933042 L0,0.000246933042 Z" id="Fill-1"></path>
            </g>
        </g>
    </g>
</svg>