<?xml version="1.0" encoding="UTF-8"?>
<svg width="24px" height="18px" viewBox="0 0 24 18" version="1.1" xmlns="http://www.w3.org/2000/svg" xmlns:xlink="http://www.w3.org/1999/xlink">
    <!-- Generator: Sketch 50.2 (55047) - http://www.bohemiancoding.com/sketch -->
    <title>Page 1</title>
    <desc>Created with Sketch.</desc>
    <defs>
        <polygon id="path-1" points="1.98347107e-05 0.0097923913 23.9652738 0.0097923913 23.9652738 18 1.98347107e-05 18"></polygon>
    </defs>
    <g id="Page-1" stroke="none" stroke-width="1" fill="none" fill-rule="evenodd">
        <g id="Главная" transform="translate(-696.000000, -2693.000000)">
            <g id="Group-23" transform="translate(320.000000, 2671.000000)">
                <g id="Group-12" transform="translate(360.000000, 0.000000)">
                    <g id="Page-1" transform="translate(16.000000, 22.000000)">
                        <g id="Group-3">
                            <mask id="mask-2" fill="white">
                                <use xlink:href="#path-1"></use>
                            </mask>
                            <g id="Clip-2"></g>
                            <path d="M22.6314248,15.1092489 C22.6314248,15.9750098 21.9173752,16.6793576 21.0396397,16.6793576 L2.93059835,16.6793576 C2.0529124,16.6793576 1.33886281,15.9750098 1.33886281,15.1092489 L1.33886281,2.90544457 C1.33886281,2.0396837 2.0529124,1.33533587 2.93059835,1.33533587 L21.0347306,1.33533587 C21.9124165,1.33533587 22.6264165,2.0396837 22.6264165,2.90544457 L22.6264165,15.1092489 L22.6314248,15.1092489 Z M21.0396397,0.0097923913 L2.93059835,0.0097923913 C1.31406942,0.0097923913 1.98347107e-05,1.30598804 1.98347107e-05,2.90055326 L1.98347107e-05,15.1092489 C1.98347107e-05,16.7038141 1.31406942,18.0000098 2.93059835,18.0000098 L21.0347306,18.0000098 C22.6512099,18.0000098 23.9652595,16.7038141 23.9652595,15.1092489 L23.9652595,2.90544457 C23.9702678,1.31087935 22.6562182,0.0097923913 21.0396397,0.0097923913 Z" id="Fill-1" fill="#AFB09A" mask="url(#mask-2)"></path>
                        </g>
                        <path d="M15.1309127,8.84565371 L20.9978662,3.69460573 C21.2708632,3.45163177 21.2956811,3.03857603 21.0475021,2.7664452 C20.799323,2.49917384 20.3774185,2.47487644 20.0995076,2.71785041 L12.0088199,9.82726851 L10.4304009,8.44717641 C10.4254373,8.44231693 10.4204737,8.43745745 10.4204737,8.43259797 C10.3857287,8.39858162 10.3509836,8.36942474 10.311275,8.34026787 L3.8884003,2.71299093 C3.61043973,2.47001696 3.18853529,2.49431436 2.94035621,2.7664452 C2.69217712,3.03857603 2.71699503,3.45163177 2.9949556,3.69460573 L8.93139925,8.88938902 L3.01977351,14.3077084 C2.7517401,14.5555418 2.73684936,14.9685975 2.98999202,15.2358689 C3.12400873,15.3719343 3.30269767,15.4448265 3.48138661,15.4448265 C3.6451848,15.4448265 3.80898299,15.3865613 3.93803612,15.2698852 L9.93900633,9.77386284 L11.5670611,11.1976417 C11.6961142,11.3094097 11.8549488,11.3628639 12.0137835,11.3628639 C12.1726181,11.3628639 12.3364163,11.3045988 12.4605058,11.1927822 L14.1332328,9.72526804 L20.0995076,15.2747447 C20.2285111,15.3962317 20.3973225,15.4545455 20.561071,15.4545455 C20.73976,15.4545455 20.9134853,15.3865613 21.0475021,15.2504473 C21.3006447,14.9880354 21.2907672,14.5701202 21.0226841,14.3222868 L15.1309127,8.84565371 Z" id="Fill-4" fill="#AFB09A"></path>
                    </g>
                </g>
            </g>
        </g>
    </g>
</svg>