<?xml version="1.0" encoding="UTF-8"?>
<svg width="40px" height="39px" viewBox="0 0 40 39" version="1.1" xmlns="http://www.w3.org/2000/svg" xmlns:xlink="http://www.w3.org/1999/xlink">
    <!-- Generator: Sketch 50.2 (55047) - http://www.bohemiancoding.com/sketch -->
    <title>Group 3</title>
    <desc>Created with Sketch.</desc>
    <defs>
        <polygon id="path-1" points="0 0.000751348574 39.9257679 0.000751348574 39.9257679 38.1517859 0 38.1517859"></polygon>
    </defs>
    <g id="Page-1" stroke="none" stroke-width="1" fill="none" fill-rule="evenodd">
        <g id="Медиа-инфографика" transform="translate(-64.000000, -174.000000)">
            <g id="Group" transform="translate(40.000000, 104.000000)">
                <g id="Page-1" transform="translate(24.000000, 67.000000)">
                    <g id="Group-3" transform="translate(0.000000, 3.000000)">
                        <mask id="mask-2" fill="white">
                            <use xlink:href="#path-1"></use>
                        </mask>
                        <g id="Clip-2"></g>
                        <path d="M35.2672073,25.3801959 C33.4297359,25.3801959 31.9401123,23.8851792 31.9401123,22.0408689 C31.9401123,20.196642 33.4297359,18.7015419 35.2672073,18.7015419 C37.1046787,18.7015419 38.5943023,20.196642 38.5943023,22.0408689 C38.5921397,23.8842609 37.1037638,25.3781088 35.2672073,25.3801959 Z M9.31586608,26.7159267 C8.71698898,26.7159267 8.65044708,25.7809986 8.65044708,25.3801959 L8.65044708,23.9629855 C8.7036806,23.9696641 8.75824496,23.9724191 8.8121439,23.9776785 C8.8786858,23.985025 8.9452277,23.9904515 9.0117696,23.9964622 C9.32651279,24.0245126 9.64391765,24.0431293 9.9639842,24.0437972 L9.99725515,24.0437972 C10.3166563,24.0437972 10.6333957,24.0245126 10.9461426,23.9964622 C11.0126845,23.9904515 11.083219,23.985025 11.1517571,23.9776785 C11.2043252,23.9716677 11.2588896,23.9696641 11.3114577,23.9629855 L11.3114577,25.3801959 C11.3114577,25.7809986 11.2449158,26.7159267 10.6460387,26.7159267 L9.31586608,26.7159267 Z M1.33083801,14.7477787 L1.33083801,14.6943495 L3.32709503,14.6943495 L3.32709503,14.7704861 C3.37700146,17.6733631 5.30114369,20.2065765 8.0768559,21.0237099 C9.53137867,21.4860397 11.092618,21.4860397 12.5471408,21.0237099 C15.3241838,20.2076618 17.2500728,17.6742814 17.3008942,14.7704861 L17.3008942,14.6943495 L18.6317322,14.6943495 L18.6317322,14.7477787 C18.6317322,18.4631974 15.7784155,21.7323985 11.8444583,22.5230677 C10.9206904,22.7087343 9.97446455,22.7554014 9.03705552,22.6613993 C8.72846746,22.6312619 8.4217093,22.5847618 8.11811187,22.5218154 C4.18415471,21.7323985 1.33083801,18.4631974 1.33083801,14.7477787 Z M5.98877105,1.33704148 C6.3562487,1.33704148 6.65419006,1.6361617 6.65419006,2.00490688 C6.65419006,2.37373555 6.3562487,2.67277228 5.98877105,2.67277228 C5.62129341,2.67277228 5.32335205,2.37373555 5.32335205,2.00490688 C5.32335205,1.6361617 5.62129341,1.33704148 5.98877105,1.33704148 Z M13.9737991,2.67277228 C13.6063215,2.67277228 13.3083801,2.37373555 13.3083801,2.00490688 C13.3083801,1.6361617 13.6063215,1.33704148 13.9737991,1.33704148 C14.3412768,1.33704148 14.6392181,1.6361617 14.6392181,2.00490688 C14.6392181,2.37373555 14.3412768,2.67277228 13.9737991,2.67277228 Z M39.8773965,21.3785134 C39.5823664,19.3269978 37.9766272,17.7153551 35.9326263,17.4192403 L35.9326263,16.205061 C35.9326263,12.8550482 33.3953837,10.1274859 30.2765648,10.1274859 C27.2475775,10.1274859 24.7116656,12.7723163 24.6205032,16.0234016 L24.6590975,16.0234016 L24.6205032,16.0300803 L24.6205032,29.1917037 C24.6205032,33.3993392 21.4863797,36.8160551 17.6336037,36.8160551 C13.7808276,36.8160551 10.6467041,33.3945807 10.6467041,29.1917037 L10.6467041,28.0516575 C11.6115617,28.0516575 12.6429611,27.3498144 12.6429611,25.3801959 L12.6429611,23.7005144 C16.9136203,22.6045473 19.9625702,18.9240245 19.9625702,14.751118 L19.9625702,13.3586187 L18.6317322,13.3586187 L18.6037846,4.6663505 C18.594136,3.05737927 17.4437929,1.68358014 15.8662508,1.39714937 C15.5259721,0.350938222 14.4049906,-0.22050411 13.3624454,0.121192525 C12.3199834,0.462638711 11.7507174,1.58774146 12.0910792,2.63420306 C12.4313579,3.6804142 13.5523394,4.25185654 14.5948846,3.9101599 C15.153088,3.72724827 15.6019963,3.3058252 15.8210023,2.75892692 C16.6734872,3.00236386 17.2640466,3.78076098 17.2709503,4.67035769 L17.3008942,13.3586187 L15.9700561,13.3586187 L15.9700561,14.7704861 C15.916989,17.0935724 14.3652319,19.1123626 12.1399043,19.7535134 C10.9492202,20.1326939 9.67078395,20.1326939 8.48009981,19.7535134 C6.2573508,19.1102755 4.70908713,17.0917358 4.65793304,14.7704861 L4.65793304,13.3586187 L2.66167602,13.3586187 L2.66167602,4.67636848 C2.66550218,3.77374839 3.27036806,2.98491587 4.13890622,2.75024467 C4.54389686,3.78501862 5.70796423,4.29426599 6.73894781,3.88778641 C7.76993138,3.48139032 8.27731337,2.31287632 7.87232273,1.27818585 C7.46733209,0.243495376 6.30318153,-0.265835474 5.27228114,0.140644105 C4.71366188,0.361039687 4.28263672,0.820698048 4.09765024,1.39381004 C2.50289041,1.66738441 1.33524641,3.05253725 1.33083801,4.67636848 L1.33083801,13.3586187 L0,13.3586187 L0,14.7477787 C0,18.9252768 3.05094614,22.6072187 7.31960907,23.7005144 L7.31960907,25.3801959 C7.31960907,27.3498144 8.35100853,28.0516575 9.31586608,28.0516575 L9.31586608,29.1917037 C9.31586608,34.1339077 13.0468705,38.1517859 17.6336037,38.1517859 C22.2203369,38.1517859 25.9513412,34.1293161 25.9513412,29.1917037 L25.9513412,16.0621378 C26.0178831,13.5275886 27.9595758,11.4652203 30.2765648,11.4652203 C32.6614265,11.4652203 34.6017883,13.5917037 34.6017883,16.2070646 L34.6017883,17.4192403 C32.0556457,17.7881525 30.2895404,20.1587407 30.6570181,22.7142442 C31.0244957,25.2698311 33.3864837,27.0423459 35.9326263,26.6735172 C38.478769,26.3046885 40.2448742,23.9340168 39.8773965,21.3785134 Z" id="Fill-1" fill="#7198BA" mask="url(#mask-2)"></path>
                        <path d="M35.2672073,22.7087343 C34.8997297,22.7087343 34.6017883,22.4096975 34.6017883,22.0408689 C34.6017883,21.6720402 34.8997297,21.3730035 35.2672073,21.3730035 C35.634685,21.3730035 35.9326263,21.6720402 35.9326263,22.0408689 C35.9326263,22.4096975 35.634685,22.7087343 35.2672073,22.7087343 M35.2672073,20.0372727 C34.1646912,20.0372727 33.2709503,20.9342994 33.2709503,22.0408689 C33.2709503,23.1474384 34.1646912,24.0444651 35.2672073,24.0444651 C36.3697234,24.0444651 37.2634643,23.1474384 37.2634643,22.0408689 C37.2634643,20.9342994 36.3697234,20.0372727 35.2672073,20.0372727" id="Fill-4" fill="#7198BA" mask="url(#mask-2)"></path>
                    </g>
                </g>
            </g>
        </g>
    </g>
</svg>