<?xml version="1.0" encoding="UTF-8"?>
<svg width="16px" height="16px" viewBox="0 0 16 16" version="1.1" xmlns="http://www.w3.org/2000/svg" xmlns:xlink="http://www.w3.org/1999/xlink">
    <!-- Generator: Sketch 50.2 (55047) - http://www.bohemiancoding.com/sketch -->
    <title>Page 1</title>
    <desc>Created with Sketch.</desc>
    <defs>
        <polygon id="path-1" points="0 0 15.9994182 0 15.9994182 15.9904561 0 15.9904561"></polygon>
    </defs>
    <g id="Page-1" stroke="none" stroke-width="1" fill="none" fill-rule="evenodd">
        <g id="профиль-блоггера-copy" transform="translate(-1394.000000, -32.000000)">
            <g id="шапка">
                <g id="Group-19" transform="translate(1216.000000, 22.000000)">
                    <g id="search">
                        <g id="Page-1" transform="translate(178.000000, 10.000000)">
                            <mask id="mask-2" fill="white">
                                <use xlink:href="#path-1"></use>
                            </mask>
                            <g id="Clip-2"></g>
                            <path d="M6.69088,1.68421053 C9.41815273,1.68421053 11.6363345,3.82484211 11.6363345,6.45614035 C11.6363345,9.0874386 9.41815273,11.2280702 6.69088,11.2280702 C3.96389818,11.2280702 1.74542545,9.0874386 1.74542545,6.45614035 C1.74542545,3.82484211 3.96389818,1.68421053 6.69088,1.68421053 M15.75648,14.5647719 L11.8120436,10.6065965 C12.8261527,9.44336842 13.3817891,7.97978947 13.3817891,6.45614035 C13.3817891,2.8962807 10.3801891,0 6.69088,0 C3.00157091,0 -2.9090909e-05,2.8962807 -2.9090909e-05,6.45614035 C-2.9090909e-05,10.016 3.00157091,12.9122807 6.69088,12.9122807 C8.07589818,12.9122807 9.39575273,12.509193 10.5241891,11.744 L14.4982982,15.7322105 C14.6644073,15.8986667 14.8878255,15.9904561 15.1272436,15.9904561 C15.3538618,15.9904561 15.5688436,15.9070877 15.7323345,15.7555088 C16.0788073,15.4335439 16.0898618,14.8996491 15.75648,14.5647719" id="Fill-1" fill="#7198BA" mask="url(#mask-2)"></path>
                        </g>
                    </g>
                </g>
            </g>
        </g>
    </g>
</svg>