<?xml version="1.0" encoding="UTF-8"?>
<svg width="14px" height="16px" viewBox="0 0 14 16" version="1.1" xmlns="http://www.w3.org/2000/svg" xmlns:xlink="http://www.w3.org/1999/xlink">
    <!-- Generator: Sketch 52.1 (67048) - http://www.bohemiancoding.com/sketch -->
    <title>Page 1</title>
    <desc>Created with Sketch.</desc>
    <defs>
        <polygon id="path-1" points="6.15234375e-06 0 14.0000062 0 14.0000062 15.9998094 6.15234375e-06 15.9998094"></polygon>
    </defs>
    <g id="Mobile" stroke="none" stroke-width="1" fill="none" fill-rule="evenodd">
        <g id="главная-поиск" transform="translate(-345.000000, -49.000000)">
            <g id="Page-1" transform="translate(345.000000, 49.000000)">
                <mask id="mask-2" fill="white">
                    <use xlink:href="#path-1"></use>
                </mask>
                <g id="Clip-2"></g>
                <path d="M13.3301663,4.67002812 L8.93533184,0.199309375 C8.67416484,-0.066659375 8.25134502,-0.066003125 7.99023955,0.198621875 C7.72907256,0.463246875 7.72907256,0.892746875 7.98956279,1.15871562 L11.2529813,4.47799687 L4.561846,4.47799687 C2.05451982,4.47799687 0.00871171875,6.55018437 6.15234375e-06,9.09934062 L6.15234375e-06,15.3213094 C6.15234375e-06,15.6965281 0.298548633,15.9998094 0.66790459,15.9998094 C1.03726055,15.9998094 1.33580303,15.6965281 1.33580303,15.3213094 L1.33580303,9.10140312 C1.34180156,7.29996562 2.78917119,5.83505937 4.56181523,5.83505937 L11.2395999,5.83505937 L7.98888604,9.14143437 C7.72836504,9.40740312 7.72836504,9.83624687 7.98956279,10.1015281 C8.11980791,10.2331531 8.29078154,10.2996531 8.46178594,10.2996531 C8.63275957,10.2996531 8.80440996,10.2331531 8.93462432,10.1008406 L13.3295203,5.62943437 C13.5906565,5.36415312 13.5906565,4.93465312 13.3301663,4.67002812" id="Fill-1" fill="#7198BA" mask="url(#mask-2)"></path>
            </g>
        </g>
    </g>
</svg>