<?xml version="1.0" encoding="UTF-8"?>
<svg width="16px" height="18px" viewBox="0 0 16 18" version="1.1" xmlns="http://www.w3.org/2000/svg" xmlns:xlink="http://www.w3.org/1999/xlink">
    <!-- Generator: Sketch 50.2 (55047) - http://www.bohemiancoding.com/sketch -->
    <title>Page 1</title>
    <desc>Created with Sketch.</desc>
    <defs>
        <polygon id="path-1" points="7.03125e-06 0 16.000007 0 16.000007 17.9997855 7.03125e-06 17.9997855"></polygon>
    </defs>
    <g id="Page-1" stroke="none" stroke-width="1" fill="none" fill-rule="evenodd">
        <g id="Главная" transform="translate(-1080.000000, -2693.000000)">
            <g id="Group-23" transform="translate(320.000000, 2671.000000)">
                <g id="Page-1" transform="translate(760.000000, 22.000000)">
                    <mask id="mask-2" fill="white">
                        <use xlink:href="#path-1"></use>
                    </mask>
                    <g id="Clip-2"></g>
                    <path d="M15.2344758,5.25378164 L10.2118078,0.224223047 C9.91333125,-0.0749917969 9.43010859,-0.0742535156 9.13170234,0.223449609 C8.83322578,0.521152734 8.83322578,1.00434023 9.13092891,1.30355508 L12.86055,5.03774648 L5.21353828,5.03774648 C2.34802266,5.03774648 0.00995625,7.36895742 7.03125e-06,10.2367582 L7.03125e-06,17.236473 C7.03125e-06,17.6585941 0.341198437,17.9997855 0.763319531,17.9997855 C1.18544063,17.9997855 1.52663203,17.6585941 1.52663203,17.236473 L1.52663203,10.2390785 C1.5334875,8.21246133 3.18762422,6.5644418 5.21350313,6.5644418 L12.845257,6.5644418 L9.13015547,10.2841137 C8.83241719,10.5833285 8.83241719,11.0657777 9.13092891,11.3642191 C9.27978047,11.5122973 9.47517891,11.5871098 9.6706125,11.5871098 C9.86601094,11.5871098 10.0621828,11.5122973 10.2109992,11.3634457 L15.2337375,6.33311367 C15.5321789,6.03467227 15.5321789,5.55148477 15.2344758,5.25378164" id="Fill-1" fill="#7198BA" mask="url(#mask-2)"></path>
                </g>
            </g>
        </g>
    </g>
</svg>