<?xml version="1.0" encoding="UTF-8"?>
<svg width="40px" height="40px" viewBox="0 0 40 40" version="1.1" xmlns="http://www.w3.org/2000/svg" xmlns:xlink="http://www.w3.org/1999/xlink">
    <!-- Generator: Sketch 50.2 (55047) - http://www.bohemiancoding.com/sketch -->
    <title>Group 9</title>
    <desc>Created with Sketch.</desc>
    <defs>
        <polygon id="path-1" points="0 0 39.9999219 0 39.9999219 40 0 40"></polygon>
    </defs>
    <g id="Page-1" stroke="none" stroke-width="1" fill="none" fill-rule="evenodd">
        <g id="Медиа-инфографика" transform="translate(-993.000000, -173.000000)">
            <g id="Group-5" transform="translate(960.000000, 104.000000)">
                <g id="скиринг-copy-2">
                    <g id="Group-9" transform="translate(33.000000, 69.000000)">
                        <g id="Page-1">
                            <g id="Group-3">
                                <mask id="mask-2" fill="white">
                                    <use xlink:href="#path-1"></use>
                                </mask>
                                <g id="Clip-2"></g>
                                <path d="M37.2990391,24.6353906 C36.0609141,29.2561719 33.0975547,33.1182812 28.9545078,35.5101563 C24.8116953,37.9021094 19.9852891,38.5374219 15.3645078,37.2994531 C10.7436484,36.0613281 6.88161719,33.0978906 4.48966406,28.9549219 C2.09778906,24.8121094 1.46247656,19.985625 2.70060156,15.3647656 C3.93880469,10.7439844 6.90224219,6.88203125 11.0451328,4.49 C13.8048984,2.89664062 16.8673203,2.0828125 19.9708359,2.0828125 C21.5263047,2.0828125 23.0926328,2.28734375 24.6350547,2.70070312 C29.2558359,3.93882813 33.1179453,6.90226563 35.5098984,11.0452344 C37.9017734,15.188125 38.5373203,20.0145313 37.2990391,24.6353906 M37.3129453,10.0042969 C34.6429453,5.37992188 30.3320078,2.071875 25.1740391,0.68984375 C20.0161484,-0.69234375 14.6288047,0.016953125 10.0041953,2.68703125 C5.37966406,5.35703125 2.07177344,9.66796875 0.689742188,14.8259375 C-0.692289062,19.9838281 0.0170859375,25.3713281 2.68692969,29.9957031 C5.35677344,34.6200781 9.66786719,37.928125 14.8257578,39.3101562 C16.5481016,39.7717187 18.2958359,40 20.0324766,40 C23.4964609,40 26.9153672,39.0914844 29.9957578,37.3130469 C34.6200547,34.643125 37.9281797,30.3321875 39.3101328,25.1742188 C40.6923203,20.0161719 39.9828672,14.6288281 37.3129453,10.0042969" id="Fill-1" fill="#7198BA" mask="url(#mask-2)"></path>
                            </g>
                            <path d="M28.8957775,19.5828944 L16.1995252,26.9241669 C16.1840144,26.9332094 16.1516809,26.9519127 16.1041453,26.9241669 C16.0564553,26.8966529 16.0564553,26.8593237 16.0564553,26.8414705 L16.0564553,12.1586164 C16.0564553,12.140686 16.0564553,12.103434 16.1041453,12.0758428 C16.12282,12.0650227 16.1391025,12.061313 16.1529928,12.061313 C16.1745999,12.061313 16.1901878,12.0703555 16.1996795,12.0758428 L28.8958547,19.4172698 C28.9113655,19.426235 28.9435447,19.444861 28.9435447,19.5000435 C28.9435447,19.5552259 28.9112112,19.5739292 28.8957775,19.5828944 M29.924121,17.633579 L17.2279458,10.2921519 C16.5541902,9.90255162 15.7497889,9.90270619 15.0760334,10.2920746 C14.4022778,10.6815977 14,11.3794158 14,12.1585391 L14,26.8413932 C14,27.6205166 14.4022007,28.3181801 15.0760334,28.7077804 C15.4128726,28.9026965 15.7822767,29 16.1518352,29 C16.5214709,29 16.8910294,28.9024647 17.2278686,28.7077032 L29.9241981,21.3664307 C30.5978765,20.9767531 31,20.2790122 31,19.4998889 C31,18.7208428 30.5977993,18.023102 29.924121,17.633579" id="Fill-4" fill="#7198BA"></path>
                            <path d="M32.7748781,9.45088575 C30.2162309,6.49861914 26.3697012,4.5151529 22.2217504,4.00897382 C21.6336847,3.93707461 21.0905131,4.30508029 21.0100104,4.83101904 C20.9296691,5.35681355 21.3417108,5.84128585 21.9304225,5.91318506 C25.5245434,6.35171976 28.8570505,8.07008921 31.0734197,10.6273068 C31.285456,10.8719228 31.6034298,11 31.9249563,11 C32.154918,11 32.3867369,10.934447 32.5826242,10.7988697 C33.0524793,10.4740613 33.1385535,9.87052617 32.7748781,9.45088575" id="Fill-6" fill="#7198BA"></path>
                        </g>
                    </g>
                </g>
            </g>
        </g>
    </g>
</svg>