<?xml version="1.0" encoding="UTF-8"?>
<svg width="40px" height="40px" viewBox="0 0 40 40" version="1.1" xmlns="http://www.w3.org/2000/svg" xmlns:xlink="http://www.w3.org/1999/xlink">
    <!-- Generator: Sketch 50.2 (55047) - http://www.bohemiancoding.com/sketch -->
    <title>Group 8</title>
    <desc>Created with Sketch.</desc>
    <defs></defs>
    <g id="Page-1" stroke="none" stroke-width="1" fill="none" fill-rule="evenodd">
        <g id="Главная" transform="translate(-1208.000000, -2861.000000)" fill="#7198BA">
            <g id="футер" transform="translate(0.000000, 2837.000000)">
                <g id="Group-8" transform="translate(1208.000000, 24.000000)">
                    <g id="VK">
                        <path d="M0,20 C0,8.95430446 8.95430446,0 20,0 C31.0456955,0 40,8.95430446 40,20 C40,31.0456955 31.0456955,40 20,40 C8.95430446,40 0,31.0456955 0,20 Z M21.0462187,25.8967334 C21.0462187,25.8967334 21.4312385,25.8547407 21.6284438,25.6468258 C21.8089544,25.4563224 21.8026939,25.0968241 21.8026939,25.0968241 C21.8026939,25.0968241 21.7786954,23.418141 22.5727336,23.1702818 C23.3552942,22.9265194 24.360102,24.7936574 25.4264712,25.5116298 C26.2319869,26.054462 26.8434276,25.9356535 26.8434276,25.9356535 L29.6929916,25.8967334 C29.6929916,25.8967334 31.182987,25.8066028 30.4765956,24.656413 C30.4181644,24.5621855 30.064447,23.8052931 28.3584649,22.2505397 C26.5710965,20.6230672 26.8110818,20.8862896 28.9626017,18.0707316 C30.2731298,16.3562012 30.7969237,15.3094568 30.6331077,14.8618763 C30.477639,14.4337558 29.5135244,14.5474433 29.5135244,14.5474433 L26.3060693,14.5669033 C26.3060693,14.5669033 26.0681709,14.5351527 25.8918339,14.6385981 C25.7196706,14.7399951 25.6080253,14.976588 25.6080253,14.976588 C25.6080253,14.976588 25.100926,16.3029422 24.4237502,17.4316235 C22.9953163,19.8118915 22.4245687,19.9378696 22.190844,19.7903831 C21.6472252,19.4452237 21.7828691,18.4056488 21.7828691,17.6671922 C21.7828691,15.3596432 22.1397167,14.3979083 21.0889987,14.1490249 C20.7404983,14.0660637 20.4838185,14.0117805 19.5916994,14.0025626 C18.4470741,13.9912963 17.4787858,14.0066595 16.9299499,14.2698819 C16.564755,14.4450221 16.2830332,14.836271 16.4551965,14.8588036 C16.6670096,14.8864573 17.1469801,14.9858059 17.4015731,15.3258442 C17.7302486,15.765231 17.718771,16.7505227 17.718771,16.7505227 C17.718771,16.7505227 17.907629,19.4667322 17.2774068,19.8036978 C16.8454334,20.0351697 16.2527742,19.5630081 14.9787655,17.4029456 C14.3266317,16.2967969 13.8341402,15.0738881 13.8341402,15.0738881 C13.8341402,15.0738881 13.7391895,14.8454889 13.569113,14.7225835 C13.3635604,14.5740728 13.0766215,14.5279832 13.0766215,14.5279832 L10.0288089,14.5474433 C10.0288089,14.5474433 9.57075006,14.5597338 9.40276039,14.7553582 C9.25355217,14.92845 9.39128283,15.2879483 9.39128283,15.2879483 C9.39128283,15.2879483 11.777571,20.7685053 14.4800136,23.5308043 C16.9581221,26.0626557 19.7711666,25.8967334 19.7711666,25.8967334 L21.0462187,25.8967334 Z" id="Combined-Shape"></path>
                    </g>
                </g>
            </g>
        </g>
    </g>
</svg>