<?xml version="1.0" encoding="UTF-8"?>
<svg width="40px" height="40px" viewBox="0 0 40 40" version="1.1" xmlns="http://www.w3.org/2000/svg" xmlns:xlink="http://www.w3.org/1999/xlink">
    <!-- Generator: Sketch 50.2 (55047) - http://www.bohemiancoding.com/sketch -->
    <title>Group 25</title>
    <desc>Created with Sketch.</desc>
    <defs></defs>
    <g id="Page-1" stroke="none" stroke-width="1" fill="none" fill-rule="evenodd">
        <g id="Главная" transform="translate(-1152.000000, -2861.000000)" fill="#7198BA">
            <g id="футер" transform="translate(0.000000, 2837.000000)">
                <g id="Group-25" transform="translate(1152.000000, 24.000000)">
                    <g id="Youtube">
                        <path d="M0,20 C0,8.95430446 8.8202402,0 19.7005591,0 C30.580878,0 39.4011182,8.95430446 39.4011182,20 C39.4011182,31.0456955 30.580878,40 19.7005591,40 C8.8202402,40 0,31.0456955 0,20 Z M29.9540984,15.9742302 C29.9540984,15.9742302 29.7488525,14.4720309 29.12,13.8105182 C28.3219672,12.9418996 27.427541,12.9378119 27.0177049,12.887398 C24.0813115,12.6666667 19.6767213,12.6666667 19.6767213,12.6666667 L19.667541,12.6666667 C19.667541,12.6666667 15.2629508,12.6666667 12.3265574,12.887398 C11.9160656,12.9378119 11.0222951,12.9418996 10.2236066,13.8105182 C9.5947541,14.4720309 9.39016393,15.9742302 9.39016393,15.9742302 C9.39016393,15.9742302 9.18032787,17.7387183 9.18032787,19.5025251 L9.18032787,21.1566476 C9.18032787,22.9211356 9.39016393,24.6849425 9.39016393,24.6849425 C9.39016393,24.6849425 9.5947541,26.1871418 10.2236066,26.8486545 C11.0222951,27.7172731 12.0708197,27.6900224 12.5377049,27.7806312 C14.2163934,27.9482235 19.6721311,28 19.6721311,28 C19.6721311,28 24.0813115,27.9931873 27.0177049,27.772456 C27.427541,27.7213608 28.3219672,27.7172731 29.12,26.8486545 C29.7488525,26.1871418 29.9540984,24.6849425 29.9540984,24.6849425 C29.9540984,24.6849425 30.1639344,22.9211356 30.1639344,21.1566476 L30.1639344,19.5025251 C30.1639344,17.7387183 29.9540984,15.9742302 29.9540984,15.9742302 Z" id="Combined-Shape"></path>
                        <polygon id="Path" points="17.5055738 23.1609425 17.504918 17.0356482 23.1744262 20.108855"></polygon>
                    </g>
                </g>
            </g>
        </g>
    </g>
</svg>