<?xml version="1.0" standalone="no"?>
<!DOCTYPE svg PUBLIC "-//W3C//DTD SVG 20010904//EN"
 "http://www.w3.org/TR/2001/REC-SVG-20010904/DTD/svg10.dtd">
<svg version="1.0" xmlns="http://www.w3.org/2000/svg"
 width="830.000000pt" height="830.000000pt" viewBox="0 0 830.000000 830.000000"
 preserveAspectRatio="xMidYMid meet">
<metadata>
Created by potrace 1.11, written by Peter Selinger 2001-2013
</metadata>
<g transform="translate(0.000000,830.000000) scale(0.100000,-0.100000)"
fill="#000000" stroke="none">
<path d="M1 7742 c0 -4 9 -20 20 -37 10 -16 27 -46 36 -65 10 -19 20 -37 23
-40 3 -3 11 -16 18 -29 8 -13 23 -39 33 -58 11 -19 60 -104 109 -188 49 -84
99 -171 111 -192 12 -21 80 -139 151 -263 164 -283 178 -308 201 -345 9 -16
20 -38 23 -47 4 -10 10 -18 15 -18 5 0 9 -5 9 -11 0 -6 22 -48 50 -95 28 -47
50 -89 50 -93 0 -5 4 -11 8 -13 9 -4 83 -135 82 -144 -1 -4 3 -10 8 -13 5 -3
36 -52 68 -109 33 -57 66 -115 75 -130 9 -15 27 -47 41 -72 35 -62 86 -152 98
-170 13 -21 69 -118 96 -165 12 -22 45 -80 74 -130 29 -49 64 -110 78 -135 14
-25 36 -62 49 -82 12 -21 23 -40 23 -42 0 -3 20 -38 44 -78 42 -71 214 -368
254 -438 10 -19 60 -105 109 -190 138 -238 237 -409 340 -590 52 -91 102 -176
111 -190 9 -14 17 -27 17 -30 0 -3 8 -16 16 -30 46 -72 89 -149 89 -159 0 -6
3 -11 8 -11 4 0 12 -10 18 -23 17 -38 59 -112 65 -117 3 -3 19 -30 36 -60 16
-30 63 -111 103 -180 40 -69 84 -145 98 -170 13 -25 28 -49 32 -55 4 -5 19
-31 33 -56 41 -75 52 -94 57 -99 6 -6 50 -86 65 -117 5 -13 13 -23 18 -23 4 0
7 -4 7 -9 0 -5 20 -44 45 -85 25 -42 45 -81 45 -86 0 -6 5 -10 10 -10 6 0 10
-4 10 -9 0 -8 72 -137 100 -181 6 -8 13 -22 17 -30 4 -8 34 -60 66 -115 33
-55 69 -118 82 -140 30 -53 43 -77 175 -305 62 -107 121 -208 130 -225 10 -16
41 -70 70 -120 29 -49 64 -111 79 -137 14 -25 45 -79 68 -120 42 -71 86 -148
114 -198 8 -14 16 -27 19 -30 3 -3 14 -22 25 -42 15 -28 22 -35 32 -26 7 6 13
14 13 18 0 5 20 43 45 84 25 42 45 81 45 86 0 6 5 10 10 10 6 0 10 4 10 10 0
8 18 41 140 250 114 194 210 360 232 400 14 25 58 101 98 170 80 137 103 177
132 230 11 19 28 49 38 65 10 17 25 42 33 57 25 45 259 452 276 478 8 14 21
34 27 45 22 41 95 168 389 675 43 74 92 160 108 190 17 30 42 73 55 95 36 58
122 207 122 212 0 3 8 17 19 31 10 15 31 50 46 77 38 69 174 305 193 335 9 14
17 28 17 32 0 4 6 13 13 20 6 6 12 15 12 19 0 6 67 122 211 367 27 45 49 87
49 92 0 6 5 10 10 10 6 0 10 5 10 10 0 6 41 80 90 166 50 85 103 176 117 202
14 26 34 59 44 74 11 14 19 29 19 32 0 4 18 36 40 72 22 36 40 68 40 70 0 2
18 33 40 69 22 36 40 70 40 75 0 6 4 10 9 10 5 0 11 8 14 18 3 9 22 44 42 77
19 33 41 71 47 85 7 14 15 27 18 30 7 7 29 42 37 60 4 8 97 170 206 360 110
190 210 363 222 385 13 22 77 134 144 249 67 115 121 213 121 217 0 5 4 9 8 9
4 0 13 12 19 28 7 15 20 41 30 57 73 122 145 245 178 305 14 25 29 52 35 60 5
8 50 87 101 175 50 88 100 175 111 192 l19 33 -4150 0 c-2283 0 -4151 -3
-4150 -8z m3954 -341 c20 -1 20 -8 20 -299 l-1 -297 -59 3 c-70 3 -84 5 -190
27 -131 27 -228 60 -420 145 -58 26 -202 66 -270 76 -257 37 -468 17 -640 -62
-48 -22 -132 -75 -176 -112 -83 -69 -192 -268 -205 -372 -2 -14 -7 -53 -12
-88 -14 -100 -7 -286 14 -382 23 -106 18 -92 62 -200 72 -177 214 -321 420
-424 39 -20 72 -33 72 -30 0 4 6 2 13 -4 11 -9 103 -39 146 -47 9 -2 17 -4 19
-5 1 -2 5 -3 10 -4 23 -6 82 -16 116 -22 21 -3 48 -8 60 -10 112 -23 512 -23
721 0 76 9 157 19 233 30 56 8 82 9 83 2 7 -60 2 -336 -6 -336 -5 -1 -71 -2
-145 -4 -74 -2 -151 -6 -170 -9 -166 -20 -320 -88 -416 -182 -74 -73 -103
-118 -139 -215 -25 -67 -28 -88 -28 -200 0 -69 2 -136 5 -150 10 -49 50 -155
74 -195 29 -51 117 -136 164 -160 19 -10 37 -21 40 -24 8 -11 104 -50 173 -71
121 -36 220 -50 392 -54 l60 -1 0 -165 c1 -91 -1 -170 -3 -176 -2 -7 -24 -18
-50 -25 -198 -54 -341 -173 -397 -329 -17 -46 -22 -182 -10 -230 3 -14 7 -29
9 -35 7 -30 43 -82 84 -122 62 -60 145 -101 267 -133 l100 -26 0 -457 c0 -251
-3 -457 -6 -457 -6 0 -59 88 -121 199 -19 33 -148 257 -168 291 -84 141 -210
365 -210 371 0 5 -4 9 -10 9 -5 0 -10 4 -10 9 0 9 -109 200 -394 690 -36 62
-66 118 -66 122 0 5 -4 9 -8 9 -5 0 -14 16 -22 35 -8 19 -17 35 -22 35 -4 0
-8 4 -8 9 0 6 -39 76 -86 158 -47 81 -96 166 -109 188 -12 22 -32 56 -43 75
-12 19 -33 57 -47 83 -14 27 -44 77 -65 113 -22 35 -40 66 -40 69 0 3 -16 29
-35 59 -19 30 -35 60 -35 66 0 5 -4 10 -10 10 -5 0 -9 3 -8 8 1 4 -5 18 -14
32 -19 30 -60 101 -86 150 -10 19 -43 76 -72 125 -29 50 -60 104 -70 120 -35
61 -168 291 -189 325 -11 19 -29 51 -38 70 -10 19 -21 37 -25 38 -5 2 -8 7 -8
11 0 4 -55 102 -121 217 -67 115 -130 224 -140 242 -11 17 -27 47 -38 65 -50
87 -139 241 -182 315 -27 45 -49 85 -49 89 0 4 -6 14 -14 22 -8 9 -27 40 -42
69 -16 29 -33 61 -39 70 -5 9 -53 91 -105 182 -52 91 -99 172 -105 181 -5 9
-32 56 -60 104 -27 48 -62 108 -77 134 -16 25 -33 57 -40 71 -7 14 -15 27 -18
30 -3 3 -21 32 -40 65 -54 98 -62 112 -174 304 -58 102 -102 187 -97 190 7 5
3249 6 3346 2z m3735 -9 c0 -7 -11 -30 -25 -52 -14 -22 -25 -44 -25 -50 0 -5
-4 -10 -10 -10 -5 0 -10 -5 -10 -10 0 -6 -12 -29 -27 -53 -15 -23 -39 -64 -54
-92 -14 -27 -41 -72 -58 -100 -17 -27 -38 -67 -48 -87 -10 -21 -21 -38 -25
-38 -5 0 -8 -4 -8 -10 0 -5 -13 -31 -29 -58 -15 -26 -41 -70 -56 -98 -15 -27
-74 -129 -131 -226 -57 -98 -104 -182 -104 -188 0 -5 -3 -10 -7 -10 -5 0 -13
-10 -19 -23 -17 -36 -59 -112 -65 -117 -3 -3 -17 -25 -30 -50 -14 -25 -36 -63
-49 -85 -12 -22 -43 -76 -68 -120 -25 -44 -52 -88 -60 -97 -8 -10 -11 -18 -6
-18 5 0 4 -4 -2 -8 -6 -4 -17 -20 -26 -37 -8 -16 -54 -97 -101 -178 -48 -82
-87 -151 -87 -155 0 -3 -6 -13 -14 -21 -7 -9 -28 -43 -46 -76 -18 -33 -47 -85
-66 -115 -18 -30 -89 -154 -158 -275 -70 -121 -130 -227 -136 -235 -5 -8 -37
-64 -72 -124 -35 -61 -78 -135 -95 -165 -18 -31 -53 -92 -78 -136 -25 -44 -51
-89 -58 -100 -21 -34 -53 -89 -79 -135 -22 -40 -230 -400 -326 -565 -19 -33
-43 -76 -54 -95 -73 -128 -149 -260 -203 -350 -34 -58 -64 -112 -68 -120 -4
-8 -15 -28 -26 -45 -10 -16 -28 -47 -40 -68 -12 -21 -28 -48 -35 -60 -32 -50
-67 -114 -77 -140 -6 -15 -15 -27 -20 -27 -5 0 -9 -4 -9 -9 0 -4 -48 -91 -106
-192 -59 -101 -115 -200 -126 -219 -11 -19 -39 -66 -62 -105 -22 -38 -47 -81
-54 -95 -7 -14 -18 -34 -25 -45 -7 -11 -29 -50 -50 -87 -21 -37 -43 -70 -48
-74 -5 -3 -9 -14 -9 -25 0 -10 -4 -19 -8 -19 -4 0 -25 -32 -46 -71 -27 -49
-41 -67 -47 -58 -4 7 -4 20 0 28 5 8 5 27 1 42 -5 15 -6 30 -3 33 6 5 8 131 3
151 -1 6 -2 15 0 20 4 25 2 114 -4 124 -4 5 -2 12 3 15 4 3 5 23 1 44 -3 21
-3 47 0 58 4 10 4 29 -1 41 -5 12 -5 24 -1 27 4 2 6 24 5 48 -2 42 -3 97 -2
128 0 8 0 24 0 35 -3 79 1 145 7 143 9 -2 74 13 87 20 6 4 15 7 22 8 24 4 150
69 198 103 69 47 79 59 25 29 -47 -27 -160 -75 -195 -83 -120 -28 -141 -30
-143 -12 -1 15 -2 78 -1 137 1 25 0 50 -1 55 -1 6 -2 12 -1 15 5 14 3 179 -2
187 -3 5 -2 14 1 21 7 9 7 68 1 98 -1 5 -1 14 0 19 1 6 3 41 4 80 1 39 6 70
12 70 29 1 171 54 250 94 125 63 226 163 283 281 40 83 65 158 77 230 14 79
17 106 16 131 -1 21 7 31 44 50 25 13 45 27 45 31 0 5 5 8 11 8 28 0 197 143
284 241 40 44 115 155 115 168 0 6 4 11 8 11 4 0 9 10 9 22 1 13 7 24 13 26 5
2 10 10 10 17 0 8 7 36 16 62 43 126 15 340 -63 478 -12 22 -28 51 -33 65 -6
13 -14 27 -18 30 -4 3 -27 31 -51 63 -149 196 -373 323 -696 393 -11 3 -38 7
-60 10 -22 3 -51 7 -64 10 -13 3 -60 7 -105 10 -45 3 -86 6 -93 9 -11 4 -15
47 -14 150 1 17 1 38 1 48 0 9 1 46 1 81 1 34 -1 68 -5 74 -3 6 -2 21 3 34 4
12 5 32 1 43 -4 11 -5 24 -2 30 3 5 5 47 4 92 -1 46 2 83 6 84 17 1 62 10 137
25 44 9 87 17 96 18 8 1 28 7 45 13 16 6 76 28 134 49 58 21 118 46 134 55 16
10 33 16 38 13 4 -3 8 0 8 5 0 6 4 11 9 11 5 0 40 14 78 32 49 23 87 32 138
36 63 4 77 1 125 -23 50 -25 100 -69 100 -87 0 -4 6 -13 13 -20 7 -7 31 -36
52 -63 71 -90 156 -178 204 -211 30 -21 90 -24 132 -7 49 19 52 49 8 118 -22
35 -27 50 -18 55 6 5 47 8 90 7 92 0 108 -11 175 -112 42 -64 81 -83 123 -61
18 10 16 11 -21 11 -29 0 -44 6 -52 19 -55 93 -115 165 -139 167 -6 1 -37 3
-67 5 -98 7 -138 15 -158 32 -46 40 -92 160 -92 241 0 55 26 91 85 121 l40 19
-35 2 c-44 2 -37 2 -89 -5 -99 -13 -141 -65 -135 -169 3 -74 5 -83 27 -124 38
-72 -20 -15 -62 61 -35 61 -48 109 -47 174 2 128 86 163 336 141 76 -7 169
-50 190 -90 11 -20 6 -91 -8 -114 -10 -15 -41 -109 -38 -113 5 -4 56 66 56 77
0 6 4 11 9 11 5 0 14 14 21 30 7 17 16 30 20 30 4 0 11 15 16 32 11 38 59 63
74 38 5 -8 6 -18 4 -22 -3 -5 -8 -21 -10 -36 -3 -15 -21 -63 -39 -107 l-35
-80 38 40 c38 40 75 106 87 156 4 15 30 51 59 80 82 85 71 146 -30 169 -69 16
-93 30 -134 74 -53 59 -108 79 -210 78 -47 -1 -96 -4 -108 -6 -14 -3 -38 4
-60 18 -84 52 -160 63 -247 38 -48 -14 -203 -73 -295 -113 -25 -11 -56 -25
-70 -31 -14 -5 -38 -16 -55 -23 -88 -39 -300 -118 -301 -113 0 2 -7 -2 -15 -8
-11 -9 -66 -27 -76 -25 -2 0 -22 -7 -45 -15 -24 -8 -54 -17 -68 -19 -14 -2
-36 -6 -50 -9 -14 -2 -41 -7 -61 -10 l-37 -6 2 40 c0 22 -2 40 -6 40 -4 0 -4
10 0 23 9 27 8 80 -2 96 -4 6 -3 11 2 11 6 0 7 14 3 33 -4 17 -4 43 -1 57 4
14 3 35 -1 46 -4 12 -5 25 -2 28 3 3 5 36 4 73 -3 118 -2 134 11 143 3 3 760
5 1682 5 1348 0 1676 -2 1676 -13z m-1779 -338 c26 -23 37 -43 43 -77 5 -29 0
-31 -73 -28 -36 1 -141 44 -141 58 1 16 36 52 60 61 37 14 87 7 111 -14z
m-2814 -502 c111 -25 147 -37 311 -103 115 -46 194 -74 244 -85 10 -2 27 -6
39 -9 11 -2 28 -6 37 -9 23 -7 105 -17 176 -21 32 -2 61 -7 64 -10 11 -11 8
-617 -3 -621 -5 -1 -62 -5 -125 -9 -63 -3 -162 -9 -220 -12 -128 -8 -365 -8
-440 0 -178 20 -383 94 -490 178 -131 102 -169 180 -171 344 0 33 3 71 6 85 3
14 7 34 9 46 14 73 92 176 159 211 89 46 244 52 404 15z m1388 -1252 c166 -34
324 -97 434 -172 51 -36 141 -122 141 -137 0 -5 6 -16 13 -23 15 -15 50 -98
41 -98 -4 0 -2 -6 3 -12 10 -15 10 -77 0 -123 -4 -16 -9 -40 -11 -51 -10 -51
-78 -173 -123 -220 -79 -83 -76 -83 -108 -17 -16 32 -31 60 -34 63 -3 3 -20
25 -36 49 -87 130 -275 273 -439 336 l-44 17 0 52 c0 28 -1 56 -2 61 -1 6 -2
15 0 20 2 14 2 108 0 120 -1 6 -2 13 -1 18 1 4 2 35 3 70 0 34 2 65 5 70 5 8
25 5 158 -23z m-514 -605 c4 -30 4 -663 1 -677 -4 -15 -15 -17 -91 -14 -112 6
-150 12 -240 42 -100 33 -185 92 -223 153 -52 83 -55 209 -7 303 49 96 163
167 305 191 91 15 253 17 255 2z m421 -137 c80 -56 192 -168 246 -248 48 -72
51 -86 20 -96 -13 -3 -30 -13 -40 -21 -9 -8 -22 -16 -30 -17 -7 -1 -28 -10
-47 -20 -35 -18 -145 -62 -193 -76 -27 -8 -27 -7 -27 33 0 23 0 60 0 82 0 22
0 47 0 55 0 8 0 24 -1 35 0 11 0 50 1 86 1 36 -1 71 -5 78 -4 6 -3 11 2 11 6
0 7 14 2 34 -4 19 -6 37 -3 39 2 3 5 19 5 36 1 17 2 31 4 31 2 0 31 -19 66
-42z m289 -764 c-47 -144 -146 -255 -283 -318 -31 -14 -61 -26 -66 -26 -5 0
-12 14 -14 30 -3 17 -2 30 1 30 5 0 6 57 1 70 -1 3 -1 10 0 15 1 6 2 49 2 96
l0 86 47 12 c25 6 56 14 68 16 30 7 225 75 243 85 24 14 24 -23 1 -96z m-707
-930 c0 -320 4 -300 -63 -272 -14 6 -29 11 -33 10 -5 -1 -8 2 -8 8 0 5 -6 10
-13 10 -14 0 -40 19 -91 68 -94 89 -93 253 2 355 52 56 166 121 197 113 6 -2
10 -107 9 -292z"/>
</g>
</svg>
